<?xml version="1.0" standalone="no"?><!DOCTYPE svg PUBLIC "-//W3C//DTD SVG 1.1//EN" "http://www.w3.org/Graphics/SVG/1.1/DTD/svg11.dtd"><svg t="1783329220146" class="icon" viewBox="0 0 1024 1024" version="1.1" xmlns="http://www.w3.org/2000/svg" p-id="4342" xmlns:xlink="http://www.w3.org/1999/xlink" width="200" height="200"><path d="M392.72448 261.6448c173.74464-103.25504 304.21504-127.48288 435.47392-113.85344l31.70304 3.2896L36.52608 794.73664l-8.00256-9.71776c-7.43936-9.03424-9.64864-22.1568-9.52832-35.43552 0.12288-13.85216 2.816-30.53056 7.8208-49.1392 10.03008-37.29152 29.80352-83.9936 59.6224-134.37952 59.66336-100.82304 160.2944-217.65632 306.28608-304.41984zM793.1136 170.66752c-114.40128-5.9136-232.10496 20.84096-387.12064 112.96512-141.86752 84.3136-239.63648 197.88032-297.4464 295.56992-28.92032 48.86784-47.6544 93.45024-56.96512 128.06912-4.66432 17.344-6.85312 31.77728-6.95296 42.76736a74.4192 74.4192 0 0 0 0.1536 5.61664L793.1136 170.66752z" fill="#000000" p-id="4343"></path><path d="M400.90624 282.304C112.60416 450.6368 2.72896 734.4896 38.4 776.96L828.6976 171.19488c-127.99488-12.60288-255.75936 10.66496-427.7888 111.10912z" fill="#3D721D" p-id="4344"></path><path d="M275.2 391.68c45.94944 0 83.2 37.25056 83.2 83.2 0 45.94944-37.25056 83.2-83.2 83.2a82.8416 82.8416 0 0 1-39.32672-9.8688A82.8928 82.8928 0 0 1 243.2 582.4c0 45.94944-37.248 83.2-83.2 83.2S76.8 628.34944 76.8 582.4c0-45.94944 37.248-83.2 83.2-83.2a82.8032 82.8032 0 0 1 39.32416 9.8688A82.91072 82.91072 0 0 1 192 474.88c0-45.94944 37.248-83.2 83.2-83.2z m-115.2 133.12C128.18944 524.8 102.4 550.58944 102.4 582.4c0 31.81312 25.78944 57.6 57.6 57.6S217.6 614.21312 217.6 582.4c0-31.81056-25.78944-57.6-57.6-57.6z m115.2-107.52C243.38944 417.28 217.6 443.06944 217.6 474.88c0 31.81312 25.78944 57.6 57.6 57.6s57.6-25.78688 57.6-57.6c0-31.81056-25.78944-57.6-57.6-57.6z m414.72-271.36c45.94944 0 83.2 37.248 83.2 83.2 0 45.94944-37.25056 83.2-83.2 83.2-23.70304 0-45.09184-9.91232-60.24448-25.8176C627.77856 330.77248 591.296 366.08 546.56 366.08c-24.54528 0-46.60736-10.63168-61.83424-27.53792A83.16928 83.16928 0 0 1 488.96 364.8c0 45.94944-37.25056 83.2-83.2 83.2-45.94944 0-83.2-37.25056-83.2-83.2 0-45.94944 37.25056-83.2 83.2-83.2 24.54528 0 46.6048 10.62912 61.83168 27.53536A83.13856 83.13856 0 0 1 463.36 282.88c0-45.952 37.25056-83.2 83.2-83.2 23.70304 0 45.08928 9.91232 60.24192 25.81504C608.70144 181.22752 645.184 145.92 689.92 145.92z m-284.16 161.28c-31.81056 0-57.6 25.78944-57.6 57.6 0 31.81312 25.78944 57.6 57.6 57.6s57.6-25.78688 57.6-57.6c0-31.81056-25.78944-57.6-57.6-57.6z m140.8-81.92c-31.81056 0-57.6 25.78944-57.6 57.6 0 31.81312 25.78944 57.6 57.6 57.6s57.6-25.78688 57.6-57.6c0-31.81056-25.78944-57.6-57.6-57.6z m143.36-53.76C658.10944 171.52 632.32 197.30944 632.32 229.12c0 31.81312 25.78944 57.6 57.6 57.6S747.52 260.93312 747.52 229.12c0-31.81056-25.78944-57.6-57.6-57.6z" fill="#000000" p-id="4345"></path><path d="M160 522.24c33.22624 0 60.16 26.93376 60.16 60.16S193.22624 642.56 160 642.56 99.84 615.62624 99.84 582.4 126.77376 522.24 160 522.24z m115.2-107.52c33.22624 0 60.16 26.93376 60.16 60.16S308.42624 535.04 275.2 535.04 215.04 508.10624 215.04 474.88 241.97376 414.72 275.2 414.72z m130.56-112.64c34.63936 0 62.72 28.08064 62.72 62.72S440.39936 427.52 405.76 427.52 343.04 399.43936 343.04 364.8s28.08064-62.72 62.72-62.72z m140.8-81.92c34.63936 0 62.72 28.0832 62.72 62.72 0 34.63936-28.08064 62.72-62.72 62.72S483.84 317.51936 483.84 282.88c0-34.6368 28.08064-62.72 62.72-62.72z m143.36-51.2c33.22624 0 60.16 26.93376 60.16 60.16S723.14624 289.28 689.92 289.28 629.76 262.34624 629.76 229.12 656.69376 168.96 689.92 168.96z" fill="#B8E89B" p-id="4346"></path><path d="M839.28576 148.76672c5.36064-1.152 13.4144-1.47712 19.62752 4.42368 5.97248 5.67296 6.31808 13.46048 5.824 18.51136-1.01376 10.40384-6.98368 24.0256-15.38816 38.84032-17.3312 30.55616-49.24928 73.33888-92.67712 120.77824-86.92992 94.96832-221.68832 210.44992-382.65344 285.70368-23.4752 10.97472-48.3712 27.49184-74.57536 46.5792-13.05856 9.51552-26.29888 19.5584-39.76704 29.7728-13.43232 10.1888-27.08736 20.544-40.8192 30.54848-27.40992 19.97312-55.57504 38.88896-83.83488 52.82304-28.2368 13.92384-57.31328 23.24736-86.4512 23.24736-4.416 0-9.22368-0.76032-13.58592-3.21536-4.65152-2.62144-7.90272-6.6816-9.5744-11.5328-2.9568-8.58112-0.5504-18.2528 2.55232-26.29376 6.5792-17.06496 21.7088-40.05632 42.56768-66.48832 42.12736-53.37856 110.9632-124.86656 193.92256-198.55104 83.01568-73.73056 180.55168-149.9904 280.22784-212.77952 99.52-62.68672 201.93792-112.43264 294.6048-132.36736z m-1.46176 26.51648c-86.73536 19.96032-183.65952 67.06944-279.5648 127.48032-98.23488 61.87776-194.64192 137.2288-276.84352 210.24-82.25792 73.05728-149.91616 143.4368-190.80448 195.24352-20.64896 26.1632-33.66144 46.592-38.75584 59.8016-1.10592 2.86976-1.65376 4.93568-1.92256 6.34368 23.3856-0.256 48.0256-7.8464 73.85088-20.57984 26.25792-12.94592 53.00224-30.83008 80.0512-50.53696 13.49632-9.83552 26.9568-20.03968 40.4224-30.25152 13.42976-10.18368 26.86976-20.38272 40.1664-30.0672 26.5088-19.31008 53.03296-37.03552 78.83776-49.1008 157.12768-73.4592 289.24928-186.56256 374.5536-279.75424 42.69056-46.63808 73.23136-87.82592 89.2672-116.09344 5.61664-9.90208 9.00352-17.46432 10.74176-22.72512z" fill="#000000" p-id="4347"></path><path d="M376.32 590.08C690.2528 442.07616 905.75872 158.55104 846.08 171.52 488.67072 249.1904-33.3568 775.73888 62.72 775.68c104.36352-0.06144 216.32512-139.7376 313.6-185.6z" fill="#7CB758" p-id="4348"></path><path d="M923.7248 107.07968c8.27648-0.55552 16.30976-0.64768 23.49312-0.02816 6.97344 0.59904 14.14656 1.94304 20.0704 4.8896 6.19264 3.0848 12.60288 8.87296 13.53216 18.30144 0.8192 8.32-3.10528 16.00768-7.85408 22.3616-172.49024 230.67392-262.528 436.0576-312.24576 585.74592-24.86272 74.85952-39.66976 135.86432-49.68448 179.34592-4.97152 21.59104-8.86528 39.34208-12.19072 52.04736-1.66144 6.35392-3.29984 11.91936-5.0048 16.32256-0.85248 2.20672-1.83552 4.416-2.99776 6.4128-1.08544 1.86112-2.79296 4.36224-5.4144 6.35648-4.56192 3.4688-10.18112 4.05504-13.71392 4.16768-4.16512 0.13056-8.87296-0.35072-13.7984-1.2544-9.91744-1.81504-22.15936-5.60128-35.46368-11.38176-26.63424-11.5712-58.70848-31.66464-86.12096-62.01856-27.50464-30.45632-50.2912-71.23712-57.99936-123.77856-7.69792-52.49536-0.22272-115.87584 31.39584-191.41888 74.79808-178.7008 161.1136-291.65312 238.41792-364.224 77.35808-72.61696 145.23648-104.36096 182.16448-121.09056 19.3024-8.74752 60.84096-18.56768 93.4144-20.75648z m1.71776 25.54368c-30.38208 2.04288-68.75392 11.3664-84.5696 18.53184-35.81952 16.22784-100.80256 46.592-175.2064 116.43648-74.44992 69.89312-158.79168 179.7632-232.32256 355.4432-30.1952 72.13824-36.57984 130.79552-29.6832 177.82016 6.89152 46.976 27.15648 83.19488 51.66848 110.336 24.60672 27.24608 53.51168 45.35296 77.3248 55.69792 11.91936 5.17888 22.26944 8.28416 29.8752 9.6768 3.06688 0.5632 5.46304 0.79872 7.19872 0.8448 0.07424-0.18432 0.15872-0.37632 0.23808-0.58368 1.16736-3.01824 2.51648-7.45472 4.11392-13.56288 3.19744-12.21888 6.92736-29.24288 12.01152-51.31264 10.09664-43.84256 25.10848-105.72288 50.33216-181.6704 50.46272-151.9232 141.68576-359.83872 316.03968-593.00608 0.92928-1.24416 1.55392-2.23744 1.97888-2.99776-1.95584-0.67584-5.02016-1.34144-9.41824-1.72032-5.47072-0.47104-12.11904-0.4352-19.58144 0.06656z" fill="#000000" p-id="4349"></path><path d="M431.57504 617.61024C572.0064 263.60576 758.96576 186.38848 828.16 153.6c33.40288-15.82848 138.45504-37.12 117.64736-7.85408C616.6016 608.75008 593.55136 959.58016 572.16 976.64c-18.8032 14.99648-257.6256-63.9872-140.58496-359.02976z" fill="#9DD57B" p-id="4350"></path><path d="M962.01472 22.8096c5.90848-6.85056 14.17728-12.94848 25.14432-13.8112 6.63296-0.51968 14.336 1.06752 19.50464 7.7696 4.49536 5.83424 4.8768 12.90752 4.544 17.93792-0.68096 10.2912-5.27104 23.25248-10.14528 35.3024-4.95616 12.25728-11.35104 26.2016-16.24832 37.68576-5.25824 12.32384-8.73728 21.71136-9.59744 27.35616-0.64 4.18816-2.08384 9.03424-5.5168 12.91008-3.99616 4.51072-9.6896 6.53568-15.47008 5.6832-4.97408-0.73216-8.8704-3.39456-11.50464-5.79072-2.78528-2.53184-5.1584-5.66272-7.09632-8.9856-7.55712-12.9536-11.67616-34.51392-1.09312-55.1168 1.29792-2.52928 2.89792-7.25504 5.35552-14.63808 2.27328-6.82752 5.05344-15.16032 8.49408-23.17568 3.4048-7.9232 7.79008-16.3584 13.62944-23.12704z m23.27296 13.15328c-1.1648 0.768-2.45504 1.9072-3.88864 3.56864-3.33824 3.87072-6.49728 9.54368-9.48992 16.50944-2.95168 6.87616-5.41696 14.21824-7.72608 21.15584-2.1248 6.38208-4.44416 13.51424-6.87616 18.25024-3.52768 6.87104-4.10112 14.0032-3.14368 20.0832 2.048-5.80352 4.56192-11.9168 7.104-17.87904 5.37856-12.61056 11.15392-25.10336 16.06144-37.24032 4.20608-10.40128 6.96832-18.70848 7.95904-24.448z" fill="#000000" p-id="4351"></path><path d="M983.18592 28.77952c-20.14464 1.25696-26.18624 44.7744-31.74912 57.01632-12.29056 27.0336 11.3536 57.79968 13.78304 37.37088 3.03616-25.536 43.14624-95.95648 17.96608-94.3872z" fill="#9DD57B" p-id="4352"></path><path d="M777.84832 77.27616c2.33472-0.5632 4.5952-0.63744 6.35392-0.60416 3.48672 0.06912 7.61344 0.6656 11.60192 1.29024 4.35456 0.68608 8.85504 1.46688 14.42048 2.2912 21.52192 3.1872 54.12352 6.22336 96.03584-3.1872 22.55104-5.06368 40.22272-5.23008 53.5808-0.27904 14.34368 5.31968 22.08512 15.91552 25.27488 27.8016 2.97472 11.0848 1.98912 23.08608 0.3328 32.96-1.64864 9.8176-4.4032 19.68896-5.70368 25.25952-6.73024 28.8256-4.1344 56.40448 3.27424 79.08608 7.5008 22.95552 19.56864 39.86688 30.62272 48.12544 2.17856 1.63072 5.30176 4.29568 7.10656 8.14336 1.00352 2.14016 1.91232 5.3376 1.19808 9.08032a14.3488 14.3488 0 0 1-5.2736 8.60672c-3.89888 3.06688-8.448 3.53024-10.69312 3.64544-2.83648 0.14848-5.85728-0.13056-8.80896-0.64-11.66336-2.01216-28.30336-8.67072-44.19072-21.04832-16.08192-12.52864-31.7824-31.21152-40.7808-57.49248-8.51968-24.8832-10.7776-55.82592-2.55488-93.68832a79.104 79.104 0 0 0-6.81984-1.59744c-11.56352-2.2528-27.4176-3.75552-45.504-6.03136-17.45408-2.19392-36.56192-5.07904-52.44672-10.1504-14.96064-4.77696-31.63648-12.87424-37.73184-28.66432-1.00864-2.6112-3.87584-10.89024 2.16064-17.85088 2.77504-3.2 6.21312-4.49536 8.54528-5.056z m173.09184 23.5136c-6.57408-2.43712-18.48832-3.3664-39.07072 1.2544-35.02592 7.86432-64.24064 7.80288-86.47168 5.80608 10.76224 2.41664 22.84288 4.20352 35.11552 5.7472 16.77568 2.112 34.51904 3.83232 47.2064 6.30272 6.23104 1.21344 12.73856 2.85952 17.75872 5.5424 2.53696 1.3568 5.76 3.52256 8.10752 7.01952a17.03168 17.03168 0 0 1 2.432 13.68832c-9.00352 36.90496-6.77376 64.9216 0.40192 85.87264 7.1808 20.96896 19.59936 35.70176 32.28928 45.58848 1.22112 0.94976 2.44224 1.84832 3.65568 2.70592-5.39648-9.11616-10.0608-19.39968-13.67808-30.47168-8.73216-26.7264-11.76064-59.07712-3.87328-92.85888 1.6768-7.17312 3.91168-14.8864 5.38624-23.67488 1.46432-8.7296 1.73056-16.3584 0.192-22.09024-1.32608-4.93568-3.86304-8.3584-9.45152-10.432z" fill="#000000" p-id="4353"></path><path d="M811.54048 101.02784c7.14752 18.01216 122.29888 21.09952 118.13632 37.5552C908.8 267.52 1000.3456 302.9632 977.92 286.72c-22.4256-16.2432-28.66944-98.44992-16.64-148.13696 4.89728-20.224 16.64-55.63648-43.4176-42.47808-71.99232 15.77728-112.2432-9.99936-106.32192 4.92288z" fill="#9DD57B" p-id="4354"></path></svg>